<svg width="20" height="10" viewBox="0 0 20 10" fill="none" xmlns="http://www.w3.org/2000/svg">
<mask id="mask0_19_13" style="mask-type:luminance" maskUnits="userSpaceOnUse" x="0" y="0" width="20" height="10">
<path d="M5 9L15 9C17.2091 9 19 7.20914 19 5C19 2.79086 17.2091 1 15 1L5 1C2.79086 1 1 2.79086 1 5C1 7.20914 2.79086 9 5 9Z" fill="white" stroke="white" stroke-width="2" stroke-linecap="round" stroke-linejoin="round"/>
<path d="M15 2C13.3431 2 12 3.34315 12 5C12 6.65685 13.3431 8 15 8C16.6569 8 18 6.65685 18 5C18 3.34315 16.6569 2 15 2Z" fill="#212121"/>
</mask>
<g mask="url(#mask0_19_13)">
<path d="M0 10L20 10L20 0L0 0L0 10Z" fill="white"/>
</g>
</svg>
